<?xml version="1.0" standalone="no"?>
<!DOCTYPE svg PUBLIC "-//W3C//DTD SVG 20010904//EN"
 "http://www.w3.org/TR/2001/REC-SVG-20010904/DTD/svg10.dtd">
<svg version="1.0" xmlns="http://www.w3.org/2000/svg"
 width="225.000000pt" height="225.000000pt" viewBox="0 0 225.000000 225.000000"
 preserveAspectRatio="xMidYMid meet">
<metadata>
Created by potrace 1.11, written by Peter Selinger 2001-2013
</metadata>
<g transform="translate(0.000000,225.000000) scale(0.100000,-0.100000)"
fill="#000000" stroke="none">
<path d="M0 1125 l0 -1125 1125 0 1125 0 0 1125 0 1125 -1125 0 -1125 0 0
-1125z m1144 100 c39 -17 46 -38 22 -71 -13 -17 -12 -20 7 -31 28 -15 3 -17
-25 -2 -18 10 -24 8 -38 -11 -13 -17 -23 -21 -36 -15 -18 7 -18 7 1 15 20 9
20 9 0 9 -49 2 -58 44 -19 90 29 35 38 37 88 16z m76 -49 c0 -8 -6 -16 -14
-19 -10 -4 -12 0 -9 14 6 22 23 26 23 5z m-70 -70 c0 -2 -7 -7 -16 -10 -8 -3
-12 -2 -9 4 6 10 25 14 25 6z m63 -18 c33 -17 67 -51 67 -68 0 -43 -23 -91
-47 -101 -30 -11 -41 -5 -25 14 8 10 8 20 -2 39 -11 20 -11 25 -2 22 7 -3 19
2 26 11 7 9 8 15 2 15 -6 0 -13 -6 -15 -12 -3 -8 -6 -7 -6 4 -2 36 -51 32 -51
-4 0 -17 -3 -18 -14 -9 -9 8 -16 8 -20 2 -4 -6 11 -15 34 -21 36 -10 40 -14
36 -37 -7 -35 -12 -38 -43 -27 -19 7 -29 21 -39 54 -8 25 -14 47 -14 50 0 10
72 80 82 80 5 0 19 -5 31 -12z m-136 -32 c17 -15 5 -56 -16 -56 -14 -1 -14 -2
2 -14 9 -7 17 -17 17 -21 0 -5 -3 -5 -7 -2 -3 4 -11 3 -17 -2 -18 -13 -48 -22
-41 -11 3 5 -1 20 -10 34 -17 25 -6 44 17 30 8 -5 9 -2 5 9 -3 10 -2 17 3 17
6 0 10 -5 10 -11 0 -5 5 -7 12 -3 9 6 9 9 0 12 -7 2 -12 10 -12 18 0 8 -7 14
-16 14 -20 0 -56 -39 -48 -51 3 -5 0 -9 -5 -9 -6 0 -11 2 -11 5 0 15 31 64 42
68 14 4 56 -11 75 -27z m-217 -26 c8 -15 8 -20 -3 -20 -14 0 -37 19 -37 32 0
16 30 7 40 -12z m69 9 c6 9 9 6 9 -13 0 -14 -4 -26 -9 -26 -5 0 -9 5 -9 10 0
6 -5 10 -11 10 -5 0 -7 -4 -4 -10 3 -5 1 -10 -5 -10 -7 0 -9 7 -6 16 3 9 6 21
6 27 0 7 4 6 10 -3 8 -12 11 -13 19 -1z m56 -59 c3 -5 1 -10 -4 -10 -6 0 -11
5 -11 10 0 6 2 10 4 10 3 0 8 -4 11 -10z m376 -3 c22 -17 30 -67 15 -96 l-13
-24 -17 24 c-17 23 -18 23 -12 2 9 -28 -8 -38 -28 -17 -9 8 -16 16 -16 17 0 1
4 17 9 35 6 20 6 30 0 27 -5 -4 -9 -13 -9 -22 0 -9 -3 -14 -6 -10 -3 3 0 22 7
41 14 38 39 47 70 23z m-96 -147 c65 -32 121 -89 154 -159 25 -54 26 -63 27
-236 0 -99 -1 -138 -3 -87 -4 98 -6 102 -57 83 -13 -6 -26 -6 -28 -2 -2 5 -13
11 -25 15 -16 5 -23 2 -28 -13 -3 -12 -4 -25 0 -31 4 -6 -1 -7 -11 -3 -13 5
-15 3 -9 -8 6 -11 5 -11 -5 -2 -7 6 -19 9 -26 6 -8 -3 -14 0 -14 7 0 10 -3 10
-14 1 -11 -9 -16 -9 -22 0 -5 8 -3 9 6 4 9 -6 11 -4 6 4 -5 7 -14 10 -20 8 -7
-3 -19 -1 -27 5 -11 7 -9 8 6 3 16 -5 18 -4 8 6 -20 20 -15 39 8 39 16 0 20
-5 16 -20 -3 -13 0 -20 9 -20 8 0 14 9 14 21 0 15 4 19 19 14 11 -3 23 0 27 6
4 8 3 9 -4 5 -7 -4 -18 -4 -24 0 -7 5 -36 8 -65 8 -43 1 -50 -1 -38 -11 11 -8
13 -13 5 -18 -6 -4 -14 -4 -17 -1 -3 3 -13 -4 -22 -15 -16 -20 -67 -37 -56
-18 4 5 10 7 15 4 12 -7 52 33 48 46 -5 15 -24 7 -20 -8 2 -7 -2 -13 -8 -13
-6 0 -8 5 -5 10 3 6 1 10 -5 10 -6 0 -8 5 -5 10 3 6 2 10 -4 10 -5 0 -15 -8
-20 -17 -9 -16 -10 -16 -11 4 0 12 -4 25 -10 28 -5 3 -10 1 -10 -4 0 -22 -32
-10 -67 24 -20 19 -40 35 -45 35 -14 0 -9 -30 7 -36 8 -4 15 -11 15 -16 0 -6
-7 -8 -15 -4 -8 3 -15 1 -15 -3 0 -5 6 -12 13 -14 7 -3 4 -6 -6 -6 -14 -1 -17
-6 -12 -21 10 -32 -12 -23 -24 10 -11 34 -22 41 -14 10 5 -19 2 -22 -29 -24
-7 -1 -16 -14 -20 -31 -4 -16 -6 20 -5 80 2 97 5 116 30 166 43 88 114 150
207 180 49 16 172 5 225 -21z m-302 -364 c4 -10 1 -13 -9 -9 -15 6 -19 23 -5
23 5 0 11 -7 14 -14z m187 -41 c0 -9 -6 -12 -16 -8 -13 5 -13 7 -2 14 17 11
18 11 18 -6z m-220 -4 c0 -5 -9 -11 -21 -14 -16 -4 -18 -3 -8 9 13 16 29 19
29 5z m421 -44 c-10 -9 -11 -8 -5 6 3 10 9 15 12 12 3 -3 0 -11 -7 -18z"/>
<path d="M1072 1189 c-23 -21 -21 -39 4 -39 11 0 13 6 9 20 -5 15 -2 18 14 15
11 -2 22 3 25 11 8 22 -27 17 -52 -7z"/>
<path d="M1144 955 c-19 -14 -18 -14 4 -15 13 0 22 6 22 15 0 19 -1 19 -26 0z"/>
<path d="M1316 944 c-4 -9 -3 -20 0 -23 4 -3 9 0 11 6 3 9 10 10 24 3 23 -13
24 -7 3 14 -20 20 -30 20 -38 0z"/>
<path d="M1030 664 c0 -6 7 -19 15 -30 11 -14 14 -15 15 -4 0 12 2 12 8 2 6
-9 12 -6 20 13 6 14 7 25 3 25 -5 0 -12 -8 -14 -17 -4 -17 -5 -17 -6 0 0 9 -5
17 -11 17 -5 0 -7 -8 -4 -17 5 -15 3 -15 -10 1 -9 11 -16 15 -16 10z"/>
<path d="M1110 660 c0 -5 5 -10 11 -10 5 0 7 5 4 10 -3 6 -8 10 -11 10 -2 0
-4 -4 -4 -10z"/>
<path d="M1140 654 c0 -8 5 -12 10 -9 6 3 10 10 10 16 0 5 -4 9 -10 9 -5 0
-10 -7 -10 -16z"/>
<path d="M1177 656 c-3 -8 1 -22 8 -33 11 -15 16 -16 27 -5 11 11 10 12 -3 7
-10 -4 -19 0 -22 9 -8 21 10 31 29 15 12 -10 13 -9 8 5 -8 20 -40 21 -47 2z"/>
<path d="M965 550 c0 -25 4 -30 25 -30 20 0 22 -2 10 -11 -13 -9 -13 -10 0 -5
8 3 23 9 33 12 19 7 25 64 6 64 -7 0 -9 -10 -6 -25 3 -20 1 -25 -11 -23 -8 2
-17 9 -20 17 -3 8 0 11 7 7 7 -5 9 -1 5 8 -3 9 -16 16 -28 16 -17 0 -21 -6
-21 -30z"/>
<path d="M1068 552 c-3 -23 0 -28 19 -30 13 -1 23 3 23 8 0 5 -7 7 -15 3 -13
-4 -15 0 -11 21 3 14 1 26 -4 26 -4 0 -10 -13 -12 -28z"/>
<path d="M1122 550 c1 -29 2 -30 52 -29 38 0 46 3 31 9 -18 8 -18 9 -2 9 24 1
19 34 -6 39 -12 3 -17 -3 -17 -20 0 -17 -6 -24 -20 -25 -15 -1 -20 4 -20 23 0
13 -4 24 -9 24 -5 0 -9 -13 -9 -30z m88 10 c0 -5 -2 -10 -4 -10 -3 0 -8 5 -11
10 -3 6 -1 10 4 10 6 0 11 -4 11 -10z"/>
<path d="M1235 549 c0 -33 24 -40 45 -14 15 18 5 33 -26 39 -15 3 -19 -2 -19
-25z m39 -10 c-10 -16 -24 -9 -24 12 0 18 2 19 15 9 8 -7 12 -16 9 -21z"/>
<path d="M872 550 c0 -14 2 -19 5 -12 2 6 2 18 0 25 -3 6 -5 1 -5 -13z"/>
<path d="M1261 417 c-8 -10 -7 -14 2 -14 8 0 14 6 14 14 0 7 -1 13 -2 13 -2 0
-8 -6 -14 -13z"/>
</g>
</svg>
